<?xml version="1.0" encoding="UTF-8" standalone="no"?>
<svg
   xmlns:dc="http://purl.org/dc/elements/1.1/"
   xmlns:cc="http://creativecommons.org/ns#"
   xmlns:rdf="http://www.w3.org/1999/02/22-rdf-syntax-ns#"
   xmlns:svg="http://www.w3.org/2000/svg"
   xmlns="http://www.w3.org/2000/svg"
   version="1.1"
   id="svg2"
   viewBox="0 0 177.85858 229.97948"
   height="64.905319mm"
   width="50.195644mm">
  <defs
     id="defs4" />
  <metadata
     id="metadata7">
    <rdf:RDF>
      <cc:Work
         rdf:about="">
        <dc:format>image/svg+xml</dc:format>
        <dc:type
           rdf:resource="http://purl.org/dc/dcmitype/StillImage" />
        <dc:title></dc:title>
      </cc:Work>
    </rdf:RDF>
  </metadata>
  <g
     transform="translate(-279.342,-351.41844)"
     id="layer1">
    <path
       id="path4147"
       d="m 298.25534,580.11611 c -0.87266,-0.67001 -2.09263,-2.16836 -2.71104,-3.32967 -1.03456,-1.94278 -15.2023,-135.79953 -15.2023,-143.63127 0,-7.21755 -6.01186,-6.75726 88.25731,-6.75726 94.75093,0 87.74269,-0.58573 87.74269,7.33327 0,2.30473 -3.15,34.94061 -7,72.52419 -3.85,37.58357 -7,68.7612 -7,69.28361 0,0.52241 -1.10455,2.05438 -2.45455,3.40438 l -2.45454,2.45455 -68.79546,-0.0318 c -52.50247,-0.0243 -69.17122,-0.32031 -70.38211,-1.25 z m 91.29081,-40.46419 c 0.57241,-0.6897 2.59022,-1.25401 4.48404,-1.25401 1.89381,0 4.29377,-0.45516 5.33325,-1.01147 3.01112,-1.6115 11.97856,-16.95228 11.97856,-20.49195 0,-4.34946 -5.31307,-19.66069 -7.24528,-20.8795 -1.12764,-0.7113 -3.04726,-0.56811 -6.43108,0.47971 -5.66211,1.7533 -6.31714,3.53921 -3.89998,10.63318 2.35461,6.91042 2.05966,11.46735 -0.92366,14.27003 l -2.5,2.34863 0,-4.67432 c 0,-2.57087 -0.36321,-4.67431 -0.80713,-4.67431 -1.09734,0 -9.77374,11.97733 -10.58971,14.61856 -0.44429,1.43814 0.51245,4.32867 2.97893,9 5.17083,9.79315 5.84448,10.47257 6.24961,6.30317 0.18244,-1.87753 0.80004,-3.97801 1.37245,-4.66772 z m -23.70415,-9.25401 0,-6.5 -8,-0.54874 c -8.18244,-0.56126 -11.27387,-1.75827 -13.42121,-5.19671 -1.70109,-2.72388 -0.68045,-3.27477 3.62121,-1.95455 2.03406,0.62427 3.89672,0.93662 4.13923,0.6941 0.60299,-0.60298 -6.5389,-10.86332 -9.49401,-13.63951 -2.33696,-2.19546 -2.59833,-2.21877 -11.11922,-0.99166 -10.03144,1.44465 -12.0562,2.6031 -7.39177,4.22913 3.76047,1.3109 5.23528,3.61007 4.11042,6.40794 -1.88935,4.69939 -0.98532,7.3308 5.13027,14.93291 3.34121,4.15336 6.82871,7.99893 7.75,8.54571 0.92129,0.54677 6.85008,0.88777 13.17508,0.75776 l 11.5,-0.23638 0,-6.5 z m -5.98287,-42.25 c 5.39104,-6.01876 7.88161,-7.66463 11.67385,-7.71456 4.14124,-0.0545 4.30361,1.74019 0.36754,4.06253 -1.95719,1.15477 -3.55852,2.44325 -3.55852,2.86329 0,0.42003 3.90279,1.08037 8.67286,1.46741 10.55803,0.85668 11.79332,0.15967 17.0949,-9.64558 3.83189,-7.08708 3.85456,-9.03282 0.0744,-6.38509 -3.58016,2.50764 -5.61453,1.92285 -8.34216,-2.398 l -2.52509,-4 -11.26495,0 c -8.21029,0 -11.82502,0.39229 -13.33037,1.44668 -3.58692,2.51237 -13.37959,15.18735 -13.37959,17.31764 0,2.03908 6.43721,8.13783 8.65733,8.20215 0.63653,0.0184 3.27344,-2.32897 5.8598,-5.21647 z m -79.84506,-74.41127 c -0.36964,-0.36963 -0.67207,-4.95499 -0.67207,-10.18967 0,-11.5795 2.08078,-16.8506 8.26817,-20.94523 3.59311,-2.3778 5.16565,-2.70488 14.62885,-3.04267 5.83164,-0.20817 11.16548,-0.83469 11.85298,-1.39227 0.74496,-0.60418 1.25,-3.40461 1.25,-6.93117 0,-6.19766 2.12888,-11.83811 5.68019,-15.04958 5.06919,-4.58411 7.11641,-4.78937 47.53769,-4.76618 35.07956,0.0201 38.61675,0.17641 42.28212,1.86808 7.36012,3.39692 10.5,8.55254 10.5,17.2408 0,8.36815 0.62564,8.86228 11.28518,8.91305 13.58588,0.0647 18.87417,2.43267 22.8559,10.23424 1.60354,3.14188 1.88033,5.4995 1.64359,14 l -0.28467,10.22187 -88.07793,0.2554 c -48.44287,0.14047 -88.38037,-0.047 -88.75,-0.41667 z M 406.27752,377.9756 c 0.66053,-0.79588 1.04477,-3.54853 0.87244,-6.25 l -0.30796,-4.82769 -37.93344,-0.2622 c -29.68267,-0.20518 -38.10772,0.0123 -38.73469,1 -1.23224,1.94114 -0.97871,9.21536 0.36813,10.5622 0.88971,0.88971 10.6839,1.2 37.87756,1.2 30.49186,0 36.87663,-0.23987 37.85796,-1.42231 z"
       style="fill:#000000" />
  </g>
</svg>
