<?xml version="1.0" encoding="UTF-8" standalone="no"?>
<svg
   xmlns:dc="http://purl.org/dc/elements/1.1/"
   xmlns:cc="http://creativecommons.org/ns#"
   xmlns:rdf="http://www.w3.org/1999/02/22-rdf-syntax-ns#"
   xmlns:svg="http://www.w3.org/2000/svg"
   xmlns="http://www.w3.org/2000/svg"
   version="1.1"
   id="svg2"
   viewBox="0 0 128.62302 224.06363"
   height="63.235737mm"
   width="36.300274mm">
  <defs
     id="defs4" />
  <metadata
     id="metadata7">
    <rdf:RDF>
      <cc:Work
         rdf:about="">
        <dc:format>image/svg+xml</dc:format>
        <dc:type
           rdf:resource="http://purl.org/dc/dcmitype/StillImage" />
        <dc:title></dc:title>
      </cc:Work>
    </rdf:RDF>
  </metadata>
  <g
     transform="translate(-205.51134,-329.27452)"
     id="layer1">
    <path
       id="path4147"
       d="m 292.27201,546.29502 -6.10928,-7.82148 -0.0192,-52.25 -0.0192,-52.25 -9.38922,0 c -12.67937,0 -13.91884,-0.96873 -14.43983,-11.28573 l -0.37887,-7.50279 -5.89604,-1.93313 c -3.24282,-1.06322 -5.89604,-1.75621 -5.89604,-1.53999 0,1.1339 2.57024,5.12 5.00472,7.76164 2.085,2.26243 2.88201,4.31264 3.24177,8.33904 0.36216,4.05339 1.11754,5.97979 3.13693,8 2.41523,2.4162 3.48572,2.69311 11.63824,3.01046 8.74037,0.34023 8.97834,0.41378 8.97834,2.77475 0,3.11379 -3.45012,4.49278 -11.56128,4.62093 l -6.06129,0.0958 -21.43483,43.9631 c -15.43653,31.6605 -22.04493,44.24108 -23.61498,44.95644 -2.72709,1.24255 -5.95906,0.4603 -10.38702,-2.51401 -6.23847,-4.19044 -7.6597,-0.36611 24.93927,-67.10823 7.21607,-14.774 13.12013,-27.03546 13.12013,-27.24772 0,-0.21226 -1.62036,-2.64135 -3.6008,-5.39798 -5.81823,-8.09855 -7.96294,-19.05333 -5.44743,-27.82442 0.83193,-2.90076 0.58419,-3.82607 -1.9675,-7.34857 -12.02998,-16.60691 -9.80563,-42.09347 4.96265,-56.86175 19.54825,-19.54824 51.15139,-13.74814 63.7264,11.69566 3.14031,6.354 3.75714,8.71683 4.12998,15.8205 l 0.43831,8.3509 10.27689,0.33755 c 15.38658,0.50538 14.4815,-1.27537 14.4815,28.49254 0,29.88573 0.73381,28.34501 -13.5,28.34501 l -9.5,0 0,6.79179 c 0,6.72858 -0.0419,6.8329 -4.5,11.20821 -3.40562,3.34236 -4.5,5.16633 -4.5,7.5 0,2.33367 1.09438,4.15764 4.5,7.5 2.475,2.42903 4.5,5.1314 4.5,6.00526 0,0.87386 -1.8,3.3465 -4,5.49474 -2.79726,2.73145 -4,4.75365 -4,6.72529 0,1.89938 1.30527,4.23544 4,7.15888 5.25551,5.70156 5.1692,8.05193 -0.5,13.61583 -3.55075,3.48479 -4.5,5.11984 -4.5,7.75105 0,2.57277 1.02811,4.43377 4.5,8.1455 4.21349,4.50456 4.5,5.16377 4.5,10.35381 0,5.19497 -0.35301,6.00459 -5.62311,12.8963 -3.09271,4.04434 -5.95988,7.72301 -6.37149,8.17482 -0.4116,0.45182 -3.49754,-2.69818 -6.85764,-7 z m 0.85224,-63.3948 c 0,-45.24579 -0.10293,-48.05351 -1.75,-47.73646 -1.63316,0.31438 -1.76734,3.52397 -2.0097,48.07333 -0.25695,47.23271 -0.23849,47.73645 1.75,47.73645 1.98506,0 2.0097,-0.58935 2.0097,-48.07332 z M 318.6697,416.519 c 2.18274,-2.18274 2.45455,-3.31066 2.45455,-10.18555 0,-10.36396 -1.68531,-12.36158 -10.42431,-12.3561 l -6.07569,0.004 -4.22703,5.47328 c -5.22587,6.7666 -10.77907,10.86697 -18.55927,13.70377 l -5.98074,2.18069 2.24431,1.81732 c 1.98265,1.60546 4.33518,1.81733 20.17897,1.81733 17.70841,0 17.96563,-0.031 20.38921,-2.45454 z m -56.37293,-22.01261 c 0.27488,-11.3042 0.61389,-13.75349 2.11073,-15.25 1.55697,-1.55661 4.12665,-1.82242 20.25,-2.09469 l 18.46675,-0.31184 0,-4.22806 c 0,-15.46655 -10.38815,-30.62713 -24.10856,-35.18432 -7.21538,-2.39656 -17.71283,-1.63107 -24.41124,1.78011 -6.16365,3.13885 -13.8026,11.1269 -16.73234,17.497 -1.82238,3.96239 -2.19369,6.60015 -2.2183,15.75895 -0.0274,10.19753 0.17983,11.40124 2.84074,16.5 1.57867,3.025 3.02267,5.66901 3.2089,5.87557 0.18623,0.20656 1.58575,-1.10659 3.11005,-2.91811 2.62557,-3.12031 10.77547,-8.95746 12.50653,-8.95746 0.44232,0 0.80422,3.38912 0.80422,7.53139 0,6.26965 -0.29318,7.63535 -1.75,8.15199 -2.26321,0.80262 -5.25,3.37439 -5.25,4.5205 0,0.94582 7.68069,4.73685 9.67252,4.77416 0.82386,0.0154 1.2699,-3.9826 1.5,-13.44519 z m 20.11732,11.32286 c 5.56975,-2.83674 10.19328,-6.41791 12.15876,-9.41761 l 1.59751,-2.4381 -8.52306,0 c -10.63366,0 -12.52305,1.35786 -12.52305,9 0,5.82507 0.82509,6.14829 7.28984,2.85571 z m -46.93839,131.84303 -10.14855,-5.19874 10.5008,-21.63817 10.5008,-21.63816 10.89775,5.37063 c 5.99376,2.95384 10.89775,5.65975 10.89775,6.01312 0,1.59996 -5.36913,12.39258 -6.16508,12.39258 -0.49057,0 -3.55594,-1.34477 -6.81191,-2.98839 -5.98033,-3.01885 -8.38886,-3.10655 -9.44894,-0.34405 -0.86816,2.26241 -0.01,3.08581 6.74878,6.47334 3.39743,1.70287 6.3199,3.22306 6.49438,3.37819 0.41622,0.37005 -4.71126,10.48091 -5.31514,10.48091 -0.25532,0 -3.39764,-1.44653 -6.98292,-3.21452 -6.03683,-2.97689 -6.63972,-3.09351 -8.15568,-1.57754 -2.51285,2.51285 -1.02273,4.48565 6.00626,7.9518 l 6.43832,3.17488 -1.58925,3.33269 c -0.87408,1.83298 -2.0684,3.30962 -2.65403,3.28143 -0.58564,-0.0282 -5.63164,-2.39069 -11.21334,-5.25 z"
       style="fill:#000000" />
  </g>
</svg>
