<?xml version="1.0" encoding="UTF-8" standalone="no"?>
<svg
   xmlns:dc="http://purl.org/dc/elements/1.1/"
   xmlns:cc="http://creativecommons.org/ns#"
   xmlns:rdf="http://www.w3.org/1999/02/22-rdf-syntax-ns#"
   xmlns:svg="http://www.w3.org/2000/svg"
   xmlns="http://www.w3.org/2000/svg"
   version="1.1"
   id="svg2"
   viewBox="0 0 220.66399 184.98117"
   height="52.205795mm"
   width="62.276279mm">
  <defs
     id="defs4" />
  <metadata
     id="metadata7">
    <rdf:RDF>
      <cc:Work
         rdf:about="">
        <dc:format>image/svg+xml</dc:format>
        <dc:type
           rdf:resource="http://purl.org/dc/dcmitype/StillImage" />
        <dc:title></dc:title>
      </cc:Work>
    </rdf:RDF>
  </metadata>
  <g
     transform="translate(-337.07184,-256.50165)"
     id="layer1">
    <path
       id="path4147"
       d="m 376.70832,439.64763 c -14.40881,-3.64655 -25.90027,-9.64514 -32.5469,-16.98958 -7.56807,-8.36263 -9.47952,-24.43701 -3.76967,-31.70108 4.64616,-5.91085 4.64616,-5.91085 8.08704,0 13.92912,23.92785 42.62756,36.59358 89.65062,39.56632 31.71667,2.00508 32.2213,2.14644 20.68797,5.79453 -15.32248,4.84665 -67.71931,6.97152 -82.10906,3.32981 z m 36.29999,-18.54948 c -22.92374,-5.23414 -42.51386,-15.46916 -53.45117,-27.92606 -8.99962,-10.25003 -9.31364,-11.46906 -7.75202,-30.096 2.29769,-27.40692 11.78992,-50.5801 27.58551,-67.34397 l 13.30993,-14.12583 -7.65662,11.82169 c -9.49902,14.66638 -19.32241,45.59764 -19.32241,60.84118 0,9.80876 1.0811,11.72544 7.52619,13.34303 4.1394,1.03895 7.92134,1.39676 8.40425,0.79519 0.48295,-0.60161 6.735,-12.20301 13.89345,-25.78093 15.03232,-28.51278 39.63076,-57.16183 56.4452,-65.73989 48.51109,-24.74854 90.57531,9.31387 91.26405,73.90303 0.23436,21.98129 4.962,17.33096 5.73544,-5.64169 l 0.44777,-13.29941 4.05978,8.86627 c 13.99662,30.56745 -7.67881,63.8929 -50.21522,77.20466 -19.69225,6.16267 -69.52099,7.91725 -90.27413,3.17873 z m 62.03577,-124.70481 c 6.92615,-2.4437 18.07803,-4.48731 24.78196,-4.5414 l 12.18897,-0.0984 -6.97711,-5.81252 c -14.68848,-12.23673 -41.47529,-4.17557 -60.68008,18.26091 -14.5648,17.01567 -13.37625,19.243 3.71589,6.96351 7.90756,-5.681 20.04424,-12.32852 26.97037,-14.77218 z m -101.82558,48.0157 c 11.65509,-54.45593 41.98229,-87.83833 79.86202,-87.90736 4.97214,-0.009 11.62185,1.93612 14.77712,4.32266 5.6448,4.26949 5.63945,4.34063 -0.33258,4.43313 -11.7609,0.18206 -36.74921,15.48175 -51.31431,31.41832 -8.10256,8.86547 -19.11997,25.31855 -24.48314,36.56237 -6.692,14.02966 -11.44751,20.49554 -15.15808,20.60968 -4.56814,0.14068 -5.08791,-1.32356 -3.35103,-9.4388 z"
       style="fill:#000000" />
  </g>
</svg>
